<?xml version="1.0" encoding="UTF-8"?>
<svg width="72px" height="72px" viewBox="0 0 72 72" version="1.1" xmlns="http://www.w3.org/2000/svg" xmlns:xlink="http://www.w3.org/1999/xlink">
    <!-- Generator: Sketch 50 (54983) - http://www.bohemiancoding.com/sketch -->
    <title>plan_add_friends_inactive</title>
    <desc>Created with Sketch.</desc>
    <defs></defs>
    <g id="Assets" stroke="none" stroke-width="1" fill="none" fill-rule="evenodd">
        <g id="Artboard" transform="translate(-243.000000, -121.000000)">
            <g id="plan_add_friends_inactive" transform="translate(243.000000, 121.000000)">
                <circle id="Oval-7-Copy-7" stroke="#FF1744" stroke-width="2" cx="36" cy="36" r="35"></circle>
                <path d="M30.6666667,30.6666667 C30.6666667,28.4613333 32.4613333,26.6666667 34.6666667,26.6666667 C36.872,26.6666667 38.6666667,28.4613333 38.6666667,30.6666667 C38.6666667,32.872 36.872,34.6666667 34.6666667,34.6666667 C32.4613333,34.6666667 30.6666667,32.872 30.6666667,30.6666667 M34.6666667,37.3333333 C30.088,37.3333333 26.6666667,40.8533333 26.6666667,44 L26.6666667,45.3333333 L33.3333333,45.3333333 C34.0693333,45.3333333 34.6666667,45.9306667 34.6666667,46.6666667 C34.6666667,47.4026667 34.0693333,48 33.3333333,48 L26.6666667,48 C25.196,48 24,46.804 24,45.3333333 L24,44 C24,40.4 26.6173333,37.1306667 30.216,35.5946667 C28.8653333,34.3733333 28,32.6266667 28,30.6666667 C28,26.9906667 30.9906667,24 34.6666667,24 C38.3426667,24 41.3333333,26.9906667 41.3333333,30.6666667 C41.3333333,34.3426667 38.3426667,37.3333333 34.6666667,37.3333333 Z M46.6666667,40 C47.4026667,40 48,40.5973333 48,41.3333333 C48,42.0693333 47.4026667,42.6666667 46.6666667,42.6666667 L44,42.6666667 L44,45.3333333 C44,46.0693333 43.4026667,46.6666667 42.6666667,46.6666667 C41.9306667,46.6666667 41.3333333,46.0693333 41.3333333,45.3333333 L41.3333333,42.6666667 L38.6666667,42.6666667 C37.9306667,42.6666667 37.3333333,42.0693333 37.3333333,41.3333333 C37.3333333,40.5973333 37.9306667,40 38.6666667,40 L41.3333333,40 L41.3333333,37.3333333 C41.3333333,36.5973333 41.9306667,36 42.6666667,36 C43.4026667,36 44,36.5973333 44,37.3333333 L44,40 L46.6666667,40 Z" id="Add-friend" fill="#FF1744"></path>
            </g>
        </g>
    </g>
</svg>