<?xml version="1.0" encoding="UTF-8"?>
<svg width="17px" height="20px" viewBox="0 0 17 20" version="1.1" xmlns="http://www.w3.org/2000/svg">
  <!-- Generator: Sketch 49.3 (51167) - http://www.bohemiancoding.com/sketch -->
  <title>Combined Shape</title>
  <desc>Created with Sketch.</desc>
  <defs></defs>
  <g id="Page-1" stroke="none" stroke-width="1" fill="none" fill-rule="evenodd">
    <g id="Group" transform="translate(-47.000000, -23.000000)" fill="#FF1744">
      <path
        d="M60.8117754,29.7055167 L60.8117754,37.7537625 C60.8117754,38.425348 60.2669186,38.9745021 59.6009826,38.9745021 L58.5807806,38.9745021 L58.5807806,41.7795355 C58.5805351,42.4535685 58.0384054,43 57.370015,43 C56.7015974,43 56.1597676,42.4535685 56.1594676,41.7795355 L56.1594676,38.9745021 L54.5074717,38.9745021 L54.5074717,41.7795355 C54.507199,42.4535685 53.9653147,43 53.2969516,43 C52.9626201,43 52.6599219,42.8633234 52.4409429,42.6424957 C52.2216913,42.4216681 52.0864315,42.1164145 52.0861588,41.7795355 L52.0861588,38.9745021 L51.0659841,38.9745021 C50.400048,38.9745021 49.8551913,38.425348 49.8551913,37.7537625 L49.8551913,29.7055167 L60.8117754,29.7055167 Z M60.7269435,28.1963043 C60.7607857,28.3582812 60.7858742,28.5227331 60.8016909,28.6899351 L60.8016909,29.2781671 L49.8688045,29.2781671 C49.8668956,29.2226165 49.8652866,29.1670658 49.8652866,29.1109651 C49.8652866,28.7366857 49.912164,28.3723064 50.0002464,28.0219522 C50.340032,26.6719611 51.2983036,25.5326225 52.5933883,24.8561145 L51.7531962,23.2929959 C51.701383,23.1967447 51.7368069,23.0762933 51.8322523,23.0240427 C51.9279704,22.9717921 52.0471407,23.0075425 52.098954,23.1037936 L52.9492359,24.6853375 C53.6724392,24.3690837 54.4848157,24.1917066 55.3435514,24.1917066 C56.1957423,24.1917066 57.0021467,24.3668837 57.7215049,24.6784624 L58.5679691,23.1037936 C58.6198095,23.0075425 58.7389526,22.9717921 58.834698,23.0240427 C58.9301434,23.0762933 58.9655945,23.1967447 58.913754,23.2929959 L58.0779525,24.8478644 C59.436522,25.5518728 60.4269723,26.7646372 60.7269435,28.1963043 Z M63.6666667,30.7128647 L63.6666667,35.8408508 C63.6666667,36.5148563 63.1245369,37.0613153 62.4561466,37.0613153 C61.7877835,37.0613153 61.2456537,36.5148563 61.2456537,35.8408508 L61.2453537,35.8408508 L61.2453537,30.7128647 L61.2456537,30.7128647 C61.2456537,30.0388317 61.7877835,29.4924002 62.4561466,29.4924002 C63.1245369,29.4924002 63.6666667,30.0388317 63.6666667,30.7128647 Z M49.4213129,30.7128647 L49.4213129,35.8408508 C49.4213129,36.5148563 48.8791832,37.0613153 48.2107928,37.0613153 C47.5424025,37.0613153 47.0002727,36.5148563 47.0002727,35.8408508 L47,35.8408508 L47,30.7128647 L47.0002727,30.7128647 C47.0002727,30.0388317 47.5424025,29.4924002 48.2107928,29.4924002 C48.5451243,29.4924002 48.8475498,29.6290768 49.0668015,29.8499044 C49.2857805,30.0707321 49.4213129,30.3759857 49.4213129,30.7128647 Z M57.825404,27.3248189 C58.1095858,27.3248189 58.3399909,27.0927161 58.3399909,26.8061627 C58.3399909,26.5193343 58.1095858,26.2872315 57.825404,26.2872315 C57.5412495,26.2872315 57.3108443,26.5193343 57.3108443,26.8061627 C57.3108443,27.0927161 57.5412495,27.3248189 57.825404,27.3248189 Z M52.841519,27.3248189 C53.1256735,27.3248189 53.3561059,27.0927161 53.3561059,26.8061627 C53.3561059,26.5193343 53.1256735,26.2872315 52.841519,26.2872315 C52.5573645,26.2872315 52.3269593,26.5193343 52.3269593,26.8061627 C52.3269593,27.0927161 52.5573645,27.3248189 52.841519,27.3248189 Z"
        id="Combined-Shape"></path>
    </g>
  </g>
</svg>
