<?xml version="1.0" encoding="UTF-8"?>
<svg width="34px" height="30px" viewBox="0 0 34 30" version="1.1" xmlns="http://www.w3.org/2000/svg">
  <!-- Generator: Sketch 50 (54983) - http://www.bohemiancoding.com/sketch -->
  <title>Offers</title>
  <desc>Created with Sketch.</desc>
  <defs></defs>
  <g id="1.-Desktop-large" stroke="none" stroke-width="1" fill="none" fill-rule="evenodd">
    <path
      d="M33.6666667,13.3325 C33.6666667,16.4308333 31.5333333,19.0175 28.6666667,19.7641667 L28.6666667,24.9991667 C28.6666667,25.5191667 28.425,26.0075 28.0133333,26.3225 C27.7183333,26.5475 27.3616667,26.6658333 27,26.6658333 C26.855,26.6658333 26.7083333,26.6475 26.565,26.6075 L16.0766667,23.7691667 L16.1966667,24.1491667 C16.485,25.5925 16.115,27.0708333 15.1816667,28.2091667 C14.25,29.3475 12.87,29.9991667 11.3983333,29.9991667 C9.01333333,29.9991667 6.99333333,28.3025 6.58166667,25.9558333 L5.47333333,20.8308333 C2.40833333,19.6375 0.333333333,16.6991667 0.333333333,13.3358333 C0.333333333,9.6225 2.845,6.40416667 6.44333333,5.50416667 L26.565,0.0575 C27.065,-0.0791666667 27.6,0.0291666667 28.0133333,0.3425 C28.425,0.659166667 28.6666667,1.1475 28.6666667,1.66583333 L28.6666667,6.9025 C31.5333333,7.6475 33.6666667,10.2358333 33.6666667,13.3325 Z M28.6666667,16.2025 C29.6583333,15.6241667 30.3333333,14.5608333 30.3333333,13.3325 C30.3333333,12.1058333 29.6583333,11.0408333 28.6666667,10.4641667 L28.6666667,16.2025 Z M25.3333333,22.8225 L25.3333333,3.84416667 L7.28333333,8.72916667 C5.14166667,9.26583333 3.66666667,11.1541667 3.66666667,13.3291667 C3.66666667,15.5125 5.14166667,17.4008333 7.25166667,17.9291667 C7.26333333,17.9308333 7.27333333,17.9341667 7.28333333,17.9375 L25.3333333,22.8225 Z M12.605,26.0975 C12.7716667,25.8908333 13.0316667,25.4691667 12.94,24.8775 L12.36,23.0575 L9.195,22.2675 L9.86166667,25.3625 C9.98666667,26.1175 10.6333333,26.6658333 11.3983333,26.6658333 C12.04,26.6658333 12.43,26.3075 12.605,26.0975 Z"
      id="Offers" fill="#FF1744"></path>
  </g>
</svg>
