<?xml version="1.0" encoding="UTF-8"?>
<svg width="195px" height="64px" viewBox="0 0 195 64" version="1.1" xmlns="http://www.w3.org/2000/svg">
  <!-- Generator: Sketch 49.3 (51167) - http://www.bohemiancoding.com/sketch -->
  <title>Group</title>
  <desc>Created with Sketch.</desc>
  <defs></defs>
  <g id="Page-1" stroke="none" stroke-width="1" fill="none" fill-rule="evenodd">
    <g id="Group">
      <rect id="Rectangle" fill="#000000" x="0" y="0" width="195" height="64" rx="4"></rect>
      <path
        d="M34.6666667,36.6745249 C34.5619842,36.9490094 34.4605513,37.2371007 34.3426384,37.5186233 C33.7939258,38.8312219 33.014494,39.9927369 32.0505332,41.0282705 C31.7713025,41.3287958 31.4463458,41.5737204 31.0740383,41.7494373 C30.5086136,42.0166491 29.9239237,42.0351827 29.3345915,41.8608733 C28.9406976,41.7447453 28.5542312,41.5999958 28.167997,41.4571231 C27.1402054,41.0763639 26.1247157,41.1307916 25.1099224,41.514366 C24.6967632,41.6703764 24.2780332,41.8174719 23.8516436,41.9296117 C23.1200268,42.1222201 22.4724346,41.9056823 21.8889052,41.4491467 C21.3736167,41.0458657 20.9639392,40.5435826 20.5656351,40.0283964 C19.4586933,38.5968545 18.7182563,36.9891263 18.296741,35.2277338 C18.0541841,34.2161296 17.9488053,33.1899801 18.0237774,32.1497544 C18.116158,30.8662464 18.4958931,29.6859633 19.304571,28.6757667 C20.134139,27.6397639 21.206264,27.0227604 22.5170001,26.8280406 C23.1905889,26.7278655 23.8351637,26.8378939 24.4699898,27.0509126 C24.9372311,27.2078614 25.4009907,27.3756019 25.8663751,27.5372427 C25.9459895,27.5646912 26.0290856,27.5829902 26.1087,27.6099694 C26.3740039,27.699822 26.6328087,27.6716697 26.8920777,27.5808787 C27.4080626,27.3997659 27.9242795,27.2191223 28.4428175,27.0452822 C28.87942,26.8991251 29.3253071,26.7898005 29.7853529,26.7508565 C30.4273745,26.6964289 31.0519877,26.8008268 31.6654595,26.978186 C32.6301166,27.2580663 33.4283495,27.790613 34.0371791,28.6035092 C34.0675858,28.6438608 34.097064,28.6851508 34.136523,28.7393439 C32.5994779,29.6850249 31.81169,31.0346907 31.9398158,32.8627102 C32.0677094,34.6874452 33.0845918,35.8799277 34.6666667,36.6745249 Z M30.460079,22.9618686 C30.2892447,24.0992195 29.7022336,24.9977455 28.8768436,25.755041 C28.4047279,26.1876473 27.8694778,26.5102252 27.2418472,26.6584937 C26.9540284,26.7267629 26.6627279,26.7467041 26.3616788,26.7239477 C26.3154885,26.4450058 26.3180417,26.1684099 26.3649283,25.8967407 C26.6576215,24.2087787 27.5948894,23.0296686 29.1400585,22.3385308 C29.5346488,22.1623446 29.9454869,22.0445744 30.3772151,22.0070381 C30.4069254,22.0044574 30.4366357,22.0028152 30.4800407,22 C30.5071978,22.3303197 30.5071978,22.646798 30.460079,22.9618686 Z"
        id="Combined-Shape" fill="#FFFFFF"></path>
    </g>
  </g>
</svg>
