<?xml version="1.0" encoding="UTF-8"?>
<svg width="34px" height="34px" viewBox="0 0 34 34" version="1.1" xmlns="http://www.w3.org/2000/svg" xmlns:xlink="http://www.w3.org/1999/xlink">
    <!-- Generator: Sketch 50 (54983) - http://www.bohemiancoding.com/sketch -->
    <title>ico_calander_red</title>
    <desc>Created with Sketch.</desc>
    <defs></defs>
    <g id="Assets" stroke="none" stroke-width="1" fill="none" fill-rule="evenodd">
        <g id="Artboard" transform="translate(-449.000000, -357.000000)" fill="#FF1744">
            <path d="M477.333333,387 L454,387 C453.08,387 452.333333,386.251667 452.333333,385.333333 L452.333333,372 L479,372 L479,385.333333 C479,386.251667 478.253333,387 477.333333,387 M454,363.666667 L477.333333,363.666667 C478.253333,363.666667 479,364.415 479,365.333333 L479,368.666667 L452.333333,368.666667 L452.333333,365.333333 C452.333333,364.415 453.08,363.666667 454,363.666667 M477.333333,360.333333 L475.666667,360.333333 L475.666667,358.666667 C475.666667,357.746667 474.921667,357 474,357 C473.078333,357 472.333333,357.746667 472.333333,358.666667 L472.333333,360.333333 L459,360.333333 L459,358.666667 C459,357.746667 458.255,357 457.333333,357 C456.411667,357 455.666667,357.746667 455.666667,358.666667 L455.666667,360.333333 L454,360.333333 C451.243333,360.333333 449,362.576667 449,365.333333 L449,385.333333 C449,388.09 451.243333,390.333333 454,390.333333 L477.333333,390.333333 C480.09,390.333333 482.333333,388.09 482.333333,385.333333 L482.333333,365.333333 C482.333333,362.576667 480.09,360.333333 477.333333,360.333333" id="ico_calander_red"></path>
        </g>
    </g>
</svg>