<?xml version="1.0" encoding="UTF-8"?>
<svg width="35px" height="34px" viewBox="0 0 35 34" version="1.1" xmlns="http://www.w3.org/2000/svg" xmlns:xlink="http://www.w3.org/1999/xlink">
    <!-- Generator: Sketch 50 (54983) - http://www.bohemiancoding.com/sketch -->
    <title>ico_chat_red</title>
    <desc>Created with Sketch.</desc>
    <defs></defs>
    <g id="Assets" stroke="none" stroke-width="1" fill="none" fill-rule="evenodd">
        <g id="Artboard" transform="translate(-49.000000, -357.000000)" fill="#FF1744">
            <path d="M66.46,357 C75.65,357 83.1266667,364.476667 83.1266667,373.666667 C83.1266667,382.856667 75.65,390.333333 66.46,390.333333 L49,390.333333 L52.2083333,382.298333 C50.6266667,379.703333 49.7933333,376.738333 49.7933333,373.666667 C49.7933333,364.476667 57.27,357 66.46,357 Z M66.46,387 C73.8116667,387 79.7933333,381.018333 79.7933333,373.666667 C79.7933333,366.315 73.8116667,360.333333 66.46,360.333333 C59.1083333,360.333333 53.1266667,366.315 53.1266667,373.666667 C53.1266667,376.366667 53.93,378.961667 55.45,381.171667 L55.955,381.906667 L53.92,387 L66.46,387 Z M63.1266667,370.333333 C64.9666667,370.333333 66.46,371.826667 66.46,373.666667 C66.46,375.506667 64.9666667,377 63.1266667,377 C61.2866667,377 59.7933333,375.506667 59.7933333,373.666667 C59.7933333,371.826667 61.2866667,370.333333 63.1266667,370.333333 Z M69.7933333,372 C70.7133333,372 71.46,372.746667 71.46,373.666667 C71.46,374.586667 70.7133333,375.333333 69.7933333,375.333333 C68.8733333,375.333333 68.1266667,374.586667 68.1266667,373.666667 C68.1266667,372.746667 68.8733333,372 69.7933333,372 Z" id="ico_chat_red"></path>
        </g>
    </g>
</svg>