<?xml version="1.0" encoding="UTF-8"?>
<svg width="72px" height="72px" viewBox="0 0 72 72" version="1.1" xmlns="http://www.w3.org/2000/svg" xmlns:xlink="http://www.w3.org/1999/xlink">
    <!-- Generator: Sketch 50 (54983) - http://www.bohemiancoding.com/sketch -->
    <title>plan_activity_inactive</title>
    <desc>Created with Sketch.</desc>
    <defs></defs>
    <g id="Assets" stroke="none" stroke-width="1" fill="none" fill-rule="evenodd">
        <g id="Artboard" transform="translate(-35.000000, -121.000000)">
            <g id="plan_activity_inactive" transform="translate(35.000000, 121.000000)">
                <circle id="Oval-7-Copy-6" stroke="#FF1744" stroke-width="2" cx="36" cy="36" r="35"></circle>
                <path d="M46.6666667,41.3333333 L42.696,41.3333333 L42.6386667,41.3333333 L29.3613333,41.3333333 L29.304,41.3333333 L25.3333333,41.3333333 L25.3333333,33.3333333 L28,33.3333333 L28,36 L28,37.3333333 C28,38.0706667 28.5973333,38.6666667 29.3333333,38.6666667 L42.6666667,38.6666667 C43.4026667,38.6666667 44,38.0706667 44,37.3333333 L44,36 L44,33.3333333 L46.6666667,33.3333333 L46.6666667,41.3333333 Z M30.6666667,33.428 L31.66,26.4773333 C31.7533333,25.8213333 32.316,25.3333333 32.9786667,25.3333333 L39.0213333,25.3333333 C39.684,25.3333333 40.2466667,25.8213333 40.34,26.4773333 L41.3333333,33.428 L41.3333333,36 L30.6666667,36 L30.6666667,33.428 Z M46.6666667,30.6666667 L43.6333333,30.6666667 L42.98,26.1013333 C42.6986667,24.1306667 41.0106667,22.6666667 39.0213333,22.6666667 L32.9786667,22.6666667 C30.9893333,22.6666667 29.3013333,24.1306667 29.02,26.1013333 L28.3666667,30.6666667 L25.3333333,30.6666667 C23.8613333,30.6666667 22.6666667,31.8613333 22.6666667,33.3333333 L22.6666667,41.3333333 C22.6666667,42.8053333 23.8613333,44 25.3333333,44 L27.6253333,44 L26.7066667,47.6773333 C26.528,48.3906667 26.9626667,49.1146667 27.676,49.2933333 C28.3906667,49.472 29.1146667,49.0373333 29.2933333,48.3226667 L30.3746667,44 L41.6253333,44 L42.7066667,48.3226667 C42.8853333,49.0373333 43.6093333,49.472 44.324,49.2933333 C45.0373333,49.1146667 45.472,48.3906667 45.2933333,47.6773333 L44.3746667,44 L46.6666667,44 C48.1386667,44 49.3333333,42.8053333 49.3333333,41.3333333 L49.3333333,33.3333333 C49.3333333,31.8613333 48.1386667,30.6666667 46.6666667,30.6666667 Z" id="Chill" fill="#FF1744"></path>
            </g>
        </g>
    </g>
</svg>