<?xml version="1.0" encoding="UTF-8"?>
<svg width="72px" height="72px" viewBox="0 0 72 72" version="1.1" xmlns="http://www.w3.org/2000/svg" xmlns:xlink="http://www.w3.org/1999/xlink">
    <!-- Generator: Sketch 50 (54983) - http://www.bohemiancoding.com/sketch -->
    <title>plan_activity_active</title>
    <desc>Created with Sketch.</desc>
    <defs>
        <path d="M26.6666667,21.3333333 L22.696,21.3333333 L22.6386667,21.3333333 L9.36133333,21.3333333 L9.304,21.3333333 L5.33333333,21.3333333 L5.33333333,13.3333333 L8,13.3333333 L8,16 L8,17.3333333 C8,18.0706667 8.59733333,18.6666667 9.33333333,18.6666667 L22.6666667,18.6666667 C23.4026667,18.6666667 24,18.0706667 24,17.3333333 L24,16 L24,13.3333333 L26.6666667,13.3333333 L26.6666667,21.3333333 Z M10.6666667,13.428 L11.66,6.47733333 C11.7533333,5.82133333 12.316,5.33333333 12.9786667,5.33333333 L19.0213333,5.33333333 C19.684,5.33333333 20.2466667,5.82133333 20.34,6.47733333 L21.3333333,13.428 L21.3333333,16 L10.6666667,16 L10.6666667,13.428 Z M26.6666667,10.6666667 L23.6333333,10.6666667 L22.98,6.10133333 C22.6986667,4.13066667 21.0106667,2.66666667 19.0213333,2.66666667 L12.9786667,2.66666667 C10.9893333,2.66666667 9.30133333,4.13066667 9.02,6.10133333 L8.36666667,10.6666667 L5.33333333,10.6666667 C3.86133333,10.6666667 2.66666667,11.8613333 2.66666667,13.3333333 L2.66666667,21.3333333 C2.66666667,22.8053333 3.86133333,24 5.33333333,24 L7.62533333,24 L6.70666667,27.6773333 C6.528,28.3906667 6.96266667,29.1146667 7.676,29.2933333 C8.39066667,29.472 9.11466667,29.0373333 9.29333333,28.3226667 L10.3746667,24 L21.6253333,24 L22.7066667,28.3226667 C22.8853333,29.0373333 23.6093333,29.472 24.324,29.2933333 C25.0373333,29.1146667 25.472,28.3906667 25.2933333,27.6773333 L24.3746667,24 L26.6666667,24 C28.1386667,24 29.3333333,22.8053333 29.3333333,21.3333333 L29.3333333,13.3333333 C29.3333333,11.8613333 28.1386667,10.6666667 26.6666667,10.6666667 Z" id="path-1"></path>
    </defs>
    <g id="Assets" stroke="none" stroke-width="1" fill="none" fill-rule="evenodd">
        <g id="Artboard" transform="translate(-139.000000, -121.000000)">
            <g id="plan_activity_active" transform="translate(139.000000, 121.000000)">
                <circle id="Oval-7-Copy-6" fill="#FF1744" cx="36" cy="36" r="36"></circle>
                <g id="Icons/-Plan-category-/-Chill" transform="translate(20.000000, 20.000000)">
                    <mask id="mask-2" fill="white">
                        <use xlink:href="#path-1"></use>
                    </mask>
                    <use id="Chill" fill="#000000" fill-rule="evenodd" xlink:href="#path-1"></use>
                    <g id="🌈/-White" mask="url(#mask-2)" fill="#FFFFFF" fill-rule="evenodd">
                        <rect id="Mid-Grey" x="0" y="0" width="32" height="32"></rect>
                    </g>
                </g>
            </g>
        </g>
    </g>
</svg>