<?xml version="1.0" encoding="UTF-8"?>
<svg width="72px" height="72px" viewBox="0 0 72 72" version="1.1" xmlns="http://www.w3.org/2000/svg" xmlns:xlink="http://www.w3.org/1999/xlink">
    <!-- Generator: Sketch 49.3 (51167) - http://www.bohemiancoding.com/sketch -->
    <title>Logo</title>
    <desc>Created with Sketch.</desc>
    <defs></defs>
    <g id="Page-1" stroke="none" stroke-width="1" fill="none" fill-rule="evenodd">
        <g id="Logo">
            <circle id="Oval-12" fill="#FF1744" cx="36" cy="36" r="36"></circle>
            <path d="M39,46.5 C39,48.43375 37.43375,50 35.5,50 C33.56625,50 32,48.43375 32,46.5 L32,43 L39,43 L39,46.5 Z M46.89225,28.80225 C46.863,28.8 46.8315,28.8 46.8,28.8 C45.8057813,28.8 45,29.6060625 45,30.6 C45,31.5942188 45.8057813,32.4 46.8,32.4 C48.78675,32.4 50.4,34.011 50.4,36 C50.4,37.989 48.78675,39.6 46.8,39.6 L43.2,39.6 L43.2,25.2 C43.2,21.22425 39.97575,18 36,18 C32.05575,18 28.8495,21.17475 28.80225,25.10775 C28.8,25.137 28.8,25.1685 28.8,25.2 C28.8,26.1942188 29.6057812,27 30.6,27 C31.5942188,27 32.4,26.1942188 32.4,25.2 C32.4,23.21325 34.011,21.6 36,21.6 C37.989,21.6 39.6,23.21325 39.6,25.2 L39.6,39.6 L32.4,39.6 L32.4,37.8 C32.4,36.80775 31.5945,36 30.6,36 C29.6055,36 28.8,36.80775 28.8,37.8 L28.8,39.6 L25.2,39.6 C23.211,39.6 21.6,37.989 21.6,36 C21.6,34.011 23.211,32.4 25.2,32.4 L31.43475,32.4 L34.2,32.4 C35.19225,32.4 36,31.5945 36,30.6 C36,29.6055 35.19225,28.8 34.2,28.8 L25.2,28.8 C21.222,28.8 18,32.02425 18,36 C18,39.97575 21.222,43.2 25.2,43.2 L28.8,43.2 L28.8,46.8 C28.8,50.778 32.02425,54 36,54 C39.97575,54 43.2,50.778 43.2,46.8 L43.2,43.2 L46.8,43.2 C50.77575,43.2 54,39.97575 54,36 C54,32.05575 50.82525,28.8495 46.89225,28.80225 Z" id="Fill-1" fill="#FFFFFF"></path>
        </g>
    </g>
</svg>