<?xml version="1.0" encoding="UTF-8"?>
<svg width="184px" height="48px" viewBox="0 0 184 48" version="1.1" xmlns="http://www.w3.org/2000/svg">
  <!-- Generator: Sketch 49 (51002) - http://www.bohemiancoding.com/sketch -->
  <title>Group</title>
  <desc>Created with Sketch.</desc>
  <defs></defs>
  <g id="Page-1" stroke="none" stroke-width="1" fill="none" fill-rule="evenodd">
    <g id="Group">
      <path
        d="M153.236626,6.00020294 C153.247777,6.00006778 153.258944,6 153.270127,6 L155.98747,6 L155.98747,33.3251542 L150.562711,33.3251542 L150.562711,6.00020294 L153.236626,6.00020294 Z M70.4154301,15.3250753 C72.7785532,15.3250753 74.4539926,15.9882481 75.4428763,17.3130152 C76.4310832,18.6389098 76.9251867,20.6872817 76.9251867,23.4576798 L76.9251867,33.3252219 L71.5103543,33.3252219 L71.5105799,24.3973061 C71.5105799,22.7588792 71.2592415,21.6325453 70.7773214,21.0178534 C70.2944988,20.4036124 69.5957598,20.0964919 68.6795251,20.0964919 C67.5947537,20.0964919 66.7809495,20.4338284 66.2385638,21.1085012 C65.696178,21.7831741 65.4155092,22.8792921 65.4155092,24.3973061 L65.4148324,33.3252219 L60,33.3252219 L60,6.00006765 L62.709898,6.00006765 C64.2041661,6.00006765 65.4159605,7.2102847 65.4173142,8.70372006 L65.4249852,18.1446307 L65.4976342,18.1446307 C65.8344819,17.3012896 66.4553827,16.6207539 67.3596597,16.1023472 C68.2639367,15.5843914 69.2823764,15.3250753 70.4154301,15.3250753 Z M89.7797055,24.6503085 L89.7797055,18.4646043 C89.7797055,16.970267 90.9919511,15.758697 92.4871217,15.758697 L95.2040138,15.758697 L95.2040138,33.3252219 L89.7891814,33.3252219 L89.7891814,30.9397391 L89.7165324,30.9397391 C89.2337099,31.8313355 88.7486311,32.5244988 87.8443541,33.0178759 C86.940754,33.511704 85.9096796,33.759069 84.7522592,33.759069 C82.437644,33.759069 80.7800284,33.1146121 79.7798638,31.8252472 C78.7790223,30.5365589 78.2788271,28.4816477 78.2788271,25.6625433 L78.2788271,18.4646043 C78.2788271,16.970267 79.4910727,15.758697 80.9862433,15.758697 L83.6936595,15.758697 L83.6936595,24.4712676 C83.6936595,25.772358 83.7942851,26.6869547 83.9747795,27.2166361 C84.1554996,27.7469939 84.4508336,28.1743018 84.8610071,28.4999126 C85.2705038,28.825298 85.8250729,28.9878779 86.5244887,28.9878779 C87.6819092,28.9878779 88.5135372,28.6327276 89.019824,27.9215249 C89.5258852,27.2109988 89.7797055,26.1207436 89.7797055,24.6503085 Z M117.966864,15.3250753 C122.113497,15.3250753 124.187152,17.8070688 124.187152,22.7710558 L124.187152,33.3252219 L118.77232,33.3252219 L118.77232,23.0240581 C118.77232,21.0724225 117.966864,20.0964919 116.376031,20.0964919 C114.182121,20.0964919 113.079752,21.3739057 113.079752,23.9278312 L113.079752,33.3252219 L107.664919,33.3252219 L107.660407,23.7106821 C107.660407,22.3615618 107.448777,21.4219355 107.027323,20.8915777 C106.604966,20.3616708 106.008883,20.0964919 105.236818,20.0964919 C104.152047,20.0964919 103.338468,20.4277401 102.796083,21.0904619 C102.253471,21.7531837 101.982504,22.8556154 101.982504,24.3973061 L101.972351,33.3252219 L96.5575189,33.3252219 L96.5575189,15.758697 L101.972351,15.758697 L101.972351,18.1446307 L102.045,18.1446307 C102.52692,17.2532598 103.018993,16.560322 103.935228,16.0660429 C104.851688,15.5726658 105.863811,15.3250753 106.972949,15.3250753 C109.649455,15.3250753 111.457107,16.3733889 112.397709,18.4697906 C113.024701,17.3375939 113.783906,16.5303315 114.676225,16.0480035 C115.567642,15.5661266 116.665273,15.3250753 117.966864,15.3250753 Z M134.401467,15.3251655 C137.198227,15.3251655 139.647537,16.0000639 140.925663,17.3491842 C142.204014,18.6992065 142.842965,20.9640509 142.842965,24.144394 L142.842965,33.3250866 L137.428132,33.3250866 L137.428132,31.1218015 L137.355709,31.1218015 C136.22243,32.8810923 134.377325,33.7589337 131.797609,33.7589337 C129.964914,33.7589337 128.464554,33.2590173 127.295176,32.2591846 C126.125572,31.2593518 125.540996,29.9517221 125.540996,28.3371974 C125.540996,26.9398217 125.938986,25.7771836 126.734515,24.8492828 C127.530044,23.9220586 128.729655,23.2406209 130.332671,22.8069993 C131.935687,22.3736031 134.304902,22.1564541 137.439187,22.1564541 C137.439187,21.2168277 137.08948,20.4575952 136.390741,19.8792075 C135.691099,19.3010453 134.883387,19.0117388 133.967152,19.0117388 C132.279529,19.0117388 130.808725,19.7109903 129.555417,21.1085914 L126.661866,18.1447209 C127.675117,17.1568393 128.874051,16.4402248 130.260925,15.9939756 C132.024355,15.4264115 133.439883,15.3251655 134.401467,15.3251655 Z M137.439187,26.7470259 L137.439187,25.6265547 L135.81203,25.6265547 C134.172013,25.6265547 132.918479,25.8493411 132.050527,26.2951393 C131.182574,26.7413885 130.748936,27.3612668 130.748936,28.1565781 C130.748936,28.7349658 130.995988,29.1990289 131.490092,29.5480909 C131.984195,29.8978294 132.605096,30.072135 133.35302,30.072135 C134.55782,30.072135 135.540612,29.764789 136.300042,29.1507735 C137.059924,28.5360816 137.439187,27.7353585 137.439187,26.7470259 Z M143.789094,33.3251542 L143.789094,8.70590733 C143.789094,7.21157001 145.001339,6 146.49651,6 L149.203926,6 L149.203926,33.3251542 L143.789094,33.3251542 Z M173.613652,15.7587872 L177.231437,15.7587872 L169.347441,35.999876 C168.503855,38.1925629 167.804214,39.5964778 167.250322,40.2107188 C166.695076,40.8251852 165.990245,41.2770718 165.134476,41.5663783 C164.278481,41.8554594 163.17566,42 161.825562,42 C160.426505,42 159.076406,41.7830764 157.774816,41.3492293 L158.498599,36.903649 C159.317592,37.2648877 160.16208,37.4457325 161.030258,37.4457325 C161.753139,37.4457325 162.325757,37.3492218 162.747212,37.1566514 C163.168892,36.9634045 163.512508,36.6865 163.778512,36.3252613 C164.043613,35.9635717 164.266523,35.5419012 164.447018,35.0602497 C164.628189,34.5779217 164.826958,34.0480148 165.043777,33.4696271 L157.341178,15.7587872 L161.348605,15.7587872 C162.464738,15.7587872 163.466482,16.4433817 163.871466,17.4829011 L167.720284,27.3612668 L167.792933,27.3612668 L171.045217,17.6091768 C171.413651,16.5040391 172.448335,15.7587872 173.613652,15.7587872 Z M181.292584,15.758697 C181.772925,15.758697 182.221679,15.8800118 182.639072,16.122416 C183.05624,16.3650457 183.387447,16.6947154 183.632468,17.1116506 C183.877489,17.5288113 184,17.9797959 184,18.4646043 C184,18.9496382 183.877489,19.4019757 183.632468,19.8211658 C183.387447,20.240807 183.05624,20.5704767 182.639072,20.8106259 C182.221679,21.0507752 181.772925,21.1705116 181.292584,21.1705116 C180.812243,21.1705116 180.361007,21.0494223 179.938876,20.8070181 C179.516744,20.5643884 179.185537,20.2347187 178.94548,19.817558 C178.705196,19.4006227 178.584942,18.9496382 178.584942,18.4646043 C178.584942,17.9894921 178.70655,17.5423409 178.949089,17.1226997 C179.191629,16.7032841 179.522836,16.371134 179.942711,16.1260239 C180.362135,15.8813648 180.812243,15.758697 181.292584,15.758697 Z M179.327451,18.4646043 C179.327451,19.0224722 179.517872,19.5036727 179.898716,19.9086568 C180.279559,20.313641 180.744332,20.5159075 181.292584,20.5159075 C181.840836,20.5159075 182.305383,20.313641 182.686226,19.9086568 C183.06707,19.5036727 183.257491,19.0224722 183.257491,18.4646043 C183.257491,17.8925304 183.06346,17.4074965 182.675397,17.0099536 C182.287108,16.6124107 181.823689,16.4135265 181.285364,16.4135265 C180.746814,16.4135265 180.285651,16.6171461 179.902326,17.0243851 C179.519226,17.4318497 179.327451,17.9119227 179.327451,18.4646043 Z M181.292584,17.0171694 C182.073673,17.0171694 182.464218,17.3227114 182.464218,17.93357 C182.464218,18.3992115 182.243564,18.663714 181.802029,18.7264008 L182.529873,19.8540877 L181.765705,19.8540877 L181.117955,18.7629306 L180.994091,18.7629306 L180.994091,19.8540877 L180.251808,19.8540877 L180.251808,17.0171694 L181.292584,17.0171694 Z M180.986871,18.195592 L181.300029,18.195592 C181.430888,18.195592 181.533769,18.1750722 181.609126,18.1338071 C181.684482,18.092542 181.721935,18.0113648 181.721935,17.89005 C181.721935,17.6864304 181.581149,17.5847334 181.300029,17.5847334 L180.986871,17.5847334 L180.986871,18.195592 Z"
        id="Combined-Shape" fill="#000000"></path>
      <path
        d="M28.8,38.4 C28.8,41.052 26.652,43.2 24,43.2 C21.348,43.2 19.2,41.052 19.2,38.4 L19.2,33.6 L28.8,33.6 L28.8,38.4 Z M38.523,14.403 C38.484,14.4 38.442,14.4 38.4,14.4 C37.074375,14.4 36,15.47475 36,16.8 C36,18.125625 37.074375,19.2 38.4,19.2 C41.049,19.2 43.2,21.348 43.2,24 C43.2,26.652 41.049,28.8 38.4,28.8 L33.6,28.8 L33.6,9.6 C33.6,4.299 29.301,0 24,0 C18.741,0 14.466,4.233 14.403,9.477 C14.4,9.516 14.4,9.558 14.4,9.6 C14.4,10.925625 15.474375,12 16.8,12 C18.125625,12 19.2,10.925625 19.2,9.6 C19.2,6.951 21.348,4.8 24,4.8 C26.652,4.8 28.8,6.951 28.8,9.6 L28.8,28.8 L19.2,28.8 L19.2,26.4 C19.2,25.077 18.126,24 16.8,24 C15.474,24 14.4,25.077 14.4,26.4 L14.4,28.8 L9.6,28.8 C6.948,28.8 4.8,26.652 4.8,24 C4.8,21.348 6.948,19.2 9.6,19.2 L17.913,19.2 L21.6,19.2 C22.923,19.2 24,18.126 24,16.8 C24,15.474 22.923,14.4 21.6,14.4 L9.6,14.4 C4.296,14.4 0,18.699 0,24 C0,29.301 4.296,33.6 9.6,33.6 L14.4,33.6 L14.4,38.4 C14.4,43.704 18.699,48 24,48 C29.301,48 33.6,43.704 33.6,38.4 L33.6,33.6 L38.4,33.6 C43.701,33.6 48,29.301 48,24 C48,18.741 43.767,14.466 38.523,14.403 Z"
        id="Fill-1" fill="#FF1744"></path>
    </g>
  </g>
</svg>
