<?xml version="1.0" encoding="UTF-8"?>
<svg width="72px" height="72px" viewBox="0 0 72 72" version="1.1" xmlns="http://www.w3.org/2000/svg" xmlns:xlink="http://www.w3.org/1999/xlink">
    <!-- Generator: Sketch 50 (54983) - http://www.bohemiancoding.com/sketch -->
    <title>meet_let_other_join_active</title>
    <desc>Created with Sketch.</desc>
    <defs></defs>
    <g id="Assets" stroke="none" stroke-width="1" fill="none" fill-rule="evenodd">
        <g id="Artboard" transform="translate(-562.000000, -225.000000)">
            <g id="meet_let_other_join_active" transform="translate(562.000000, 225.000000)">
                <circle id="circle_fill" fill="#FF1744" cx="36" cy="36" r="36"></circle>
                <path d="M43.3593333,43.3593333 C40.2393333,46.478 35.1633333,46.4766667 32.046,43.3593333 L27.8033333,39.1166667 C27.5433333,38.8566667 27.5433333,38.434 27.8033333,38.174 C27.93,38.0473333 28.0966667,37.9766667 28.274,37.9766667 C28.4513333,37.9766667 28.618,38.0473333 28.746,38.174 C28.746,38.174 28.7473333,38.174 28.7473333,38.1753333 L30.1606667,39.5873333 C30.4206667,39.8486667 30.762,39.978 31.1033333,39.978 C31.4433333,39.978 31.7846667,39.8486667 32.046,39.5873333 C32.566,39.0673333 32.566,38.2233333 32.046,37.702 L27.3313333,32.9886667 L26.8593333,32.5166667 C26.6006667,32.2566667 26.6006667,31.834 26.8593333,31.574 C27.1206667,31.3153333 27.542,31.3153333 27.8033333,31.574 L32.046,35.8166667 C32.306,36.0766667 32.6473333,36.2073333 32.9886667,36.2073333 C33.33,36.2073333 33.67,36.0766667 33.9313333,35.8166667 C34.4513333,35.2953333 34.4513333,34.4513333 33.9313333,33.9313333 L29.2166667,29.218 L28.746,28.746 C28.486,28.486 28.486,28.0633333 28.746,27.8033333 C28.9993333,27.55 29.4353333,27.55 29.6886667,27.8033333 L31.5686667,29.6833333 C31.5713333,29.6846667 31.5726667,29.686 31.574,29.6873333 L34.874,32.9886667 C35.134,33.2486667 35.4753333,33.3793333 35.8166667,33.3793333 C36.158,33.3793333 36.498,33.2486667 36.7593333,32.9886667 C37.2793333,32.4686667 37.2793333,31.6233333 36.7593333,31.1033333 L33.4593333,27.8033333 C33.1993333,27.5433333 33.1993333,27.1193333 33.4593333,26.8593333 C33.7206667,26.6006667 34.142,26.6006667 34.402,26.8593333 L40.53,32.9886667 C40.9126667,33.3686667 41.4833333,33.482 41.9833333,33.2766667 C42.482,33.0713333 42.806,32.5846667 42.806,32.046 C42.806,31.5353333 42.7526667,31.0006667 42.698,30.4753333 C42.5526667,29.0846667 42.582,28.682 42.838,28.5966667 C43.338,28.43 43.5353333,28.5313333 43.598,28.566 C44.15,28.8566667 44.5233333,30.162 44.722,30.8633333 C44.7953333,31.1193333 44.862,31.3486667 44.9233333,31.5286667 C45.886,34.3806667 46.638,40.0806667 43.3593333,43.3593333 M47.4486667,30.67 C47.3966667,30.5206667 47.346,30.3366667 47.2873333,30.1313333 C46.9353333,28.8966667 46.402,27.03 44.8433333,26.2073333 C44.0033333,25.7633333 43.0446667,25.7166667 41.9953333,26.066 C40.59,26.534 40.1126667,27.59 39.9886667,28.6753333 L36.2873333,24.974 C34.9886667,23.6753333 32.874,23.6753333 31.574,24.974 C31.3993333,25.1486667 31.2486667,25.338 31.1206667,25.5366667 C29.8526667,24.6486667 27.9793333,24.7966667 26.8593333,25.9166667 C26.0233333,26.754 25.7246667,27.9273333 25.966,29.0046667 C25.606,29.166 25.27,29.394 24.974,29.6886667 C23.6753333,30.9886667 23.6753333,33.1033333 24.974,34.402 L25.446,34.874 L26.4366667,35.8633333 C26.2526667,35.986 26.0793333,36.1273333 25.9166667,36.2886667 C24.618,37.5873333 24.618,39.702 25.9166667,41.002 L30.1606667,45.2446667 C32.2393333,47.3246667 34.97,48.3633333 37.702,48.3633333 C40.434,48.3633333 43.1646667,47.3246667 45.2446667,45.2446667 C49.174,41.3153333 48.8886667,34.9406667 47.4486667,30.67" id="Meet" fill="#FFFFFF"></path>
            </g>
        </g>
    </g>
</svg>