<?xml version="1.0" encoding="UTF-8"?>
<svg width="24px" height="34px" viewBox="0 0 24 34" version="1.1" xmlns="http://www.w3.org/2000/svg">
  <!-- Generator: Sketch 50 (54983) - http://www.bohemiancoding.com/sketch -->
  <title>Lock</title>
  <desc>Created with Sketch.</desc>
  <defs></defs>
  <g id="1.-Desktop-large" stroke="none" stroke-width="1" fill="none" fill-rule="evenodd">
    <path
      d="M20.3333333,13.6666667 C22.1716667,13.6666667 23.6666667,15.1616667 23.6666667,17 L23.6666667,30.3333333 C23.6666667,32.1716667 22.1716667,33.6666667 20.3333333,33.6666667 L3.66666667,33.6666667 C1.82833333,33.6666667 0.333333333,32.1716667 0.333333333,30.3333333 L0.333333333,17 C0.333333333,15.1616667 1.82833333,13.6666667 3.66666667,13.6666667 L3.66666667,8.66666667 C3.66666667,4.07166667 7.405,0.333333333 12,0.333333333 C16.595,0.333333333 20.3333333,4.07166667 20.3333333,8.66666667 L20.3333333,13.6666667 Z M3.66666667,30.3333333 L20.3366667,30.3333333 L20.3333333,17 L7,17 L3.66666667,17 L3.66666667,30.3333333 Z M7,8.66666667 L7,13.6666667 L17,13.6666667 L17,8.66666667 C17,5.91 14.7566667,3.66666667 12,3.66666667 C9.24333333,3.66666667 7,5.91 7,8.66666667 Z"
      id="Lock" fill="#FF1744"></path>
  </g>
</svg>
