<?xml version="1.0" encoding="UTF-8"?>
<svg width="188px" height="48px" viewBox="0 0 188 48" version="1.1" xmlns="http://www.w3.org/2000/svg">
  <!-- Generator: Sketch 49 (51002) - http://www.bohemiancoding.com/sketch -->
  <title>Group</title>
  <desc>Created with Sketch.</desc>
  <defs></defs>
  <g id="Page-1" stroke="none" stroke-width="1" fill="none" fill-rule="evenodd">
    <g id="Group" fill="#FFFFFF">
      <path
        d="M157.184664,6.00020294 C157.195809,6.00006778 157.20697,6 157.218147,6 L159.933976,6 L159.933976,33.3251542 L154.51224,33.3251542 L154.51224,6.00020294 L157.184664,6.00020294 Z M74.4096255,15.3250753 C76.7714316,15.3250753 78.4459373,15.9882481 79.4342699,17.3130152 C80.4219261,18.6389098 80.9157542,20.6872817 80.9157542,23.4576798 L80.9157542,33.3252219 L75.5039395,33.3252219 L75.504165,24.3973061 C75.504165,22.7588792 75.2529666,21.6325453 74.7713151,21.0178534 C74.2887617,20.4036124 73.5904121,20.0964919 72.6746879,20.0964919 C71.5905211,20.0964919 70.7771704,20.4338284 70.235087,21.1085012 C69.6930035,21.7831741 69.4124911,22.8792921 69.4124911,24.3973061 L69.4118147,33.3252219 L64,33.3252219 L64,6.00006765 L66.7083877,6.00006765 C68.2018231,6.00006765 69.4129421,7.2102847 69.4142951,8.70372006 L69.4219618,18.1446307 L69.4945703,18.1446307 C69.8312303,17.3012896 70.4517851,16.6207539 71.3555581,16.1023472 C72.2593312,15.5843914 73.2772033,15.3250753 74.4096255,15.3250753 Z M93.7631091,24.6503085 L93.7631091,18.4646043 C93.7631091,16.970267 94.9746791,15.758697 96.4690164,15.758697 L99.1843944,15.758697 L99.1843944,33.3252219 L93.7725798,33.3252219 L93.7725798,30.9397391 L93.6999712,30.9397391 C93.2174178,31.8313355 92.7326094,32.5244988 91.8288363,33.0178759 C90.9257398,33.511704 89.89524,33.759069 88.7384647,33.759069 C86.4251394,33.759069 84.7684476,33.1146121 83.7688403,31.8252472 C82.7685566,30.5365589 82.2686402,28.4816477 82.2686402,25.6625433 L82.2686402,18.4646043 C82.2686402,16.970267 83.4802102,15.758697 84.9745476,15.758697 L87.6804549,15.758697 L87.6804549,24.4712676 C87.6804549,25.772358 87.7810244,26.6869547 87.9614183,27.2166361 C88.1420376,27.7469939 88.437207,28.1743018 88.8471519,28.4999126 C89.2564204,28.825298 89.8106804,28.9878779 90.5097065,28.9878779 C91.6664819,28.9878779 92.4976464,28.6327276 93.0036511,27.9215249 C93.5094303,27.2109988 93.7631091,26.1207436 93.7631091,24.6503085 Z M121.934558,15.3250753 C126.078881,15.3250753 128.15138,17.8070688 128.15138,22.7710558 L128.15138,33.3252219 L122.739566,33.3252219 L122.739566,23.0240581 C122.739566,21.0724225 121.934558,20.0964919 120.344612,20.0964919 C118.151925,20.0964919 117.05017,21.3739057 117.05017,23.9278312 L117.05017,33.3252219 L111.638355,33.3252219 L111.633846,23.7106821 C111.633846,22.3615618 111.422334,21.4219355 111.001114,20.8915777 C110.578993,20.3616708 109.983242,20.0964919 109.211608,20.0964919 C108.127441,20.0964919 107.314316,20.4277401 106.772232,21.0904619 C106.229923,21.7531837 105.959107,22.8556154 105.959107,24.3973061 L105.94896,33.3252219 L100.537145,33.3252219 L100.537145,15.758697 L105.94896,15.758697 L105.94896,18.1446307 L106.021568,18.1446307 C106.50322,17.2532598 106.995018,16.560322 107.910743,16.0660429 C108.826692,15.5726658 109.838251,15.3250753 110.946771,15.3250753 C113.621786,15.3250753 115.42843,16.3733889 116.368507,18.4697906 C116.99515,17.3375939 117.753932,16.5303315 118.645754,16.0480035 C119.536674,15.5661266 120.633693,15.3250753 121.934558,15.3250753 Z M138.360002,15.3251655 C141.155204,15.3251655 143.603149,16.0000639 144.880562,17.3491842 C146.158202,18.6992065 146.796796,20.9640509 146.796796,24.144394 L146.796796,33.3250866 L141.384981,33.3250866 L141.384981,31.1218015 L141.312598,31.1218015 C140.17995,32.8810923 138.335875,33.7589337 135.757596,33.7589337 C133.925922,33.7589337 132.426398,33.2590173 131.257672,32.2591846 C130.08872,31.2593518 129.504469,29.9517221 129.504469,28.3371974 C129.504469,26.9398217 129.902238,25.7771836 130.697324,24.8492828 C131.492409,23.9220586 132.691352,23.2406209 134.293474,22.8069993 C135.895597,22.3736031 138.263491,22.1564541 141.39603,22.1564541 C141.39603,21.2168277 141.046517,20.4575952 140.348168,19.8792075 C139.648916,19.3010453 138.841654,19.0117388 137.92593,19.0117388 C136.239247,19.0117388 134.769263,19.7109903 133.516654,21.1085914 L130.624715,18.1447209 C131.637401,17.1568393 132.835667,16.4402248 134.221768,15.9939756 C135.984216,15.4264115 137.398954,15.3251655 138.360002,15.3251655 Z M141.39603,26.7470259 L141.39603,25.6265547 L139.76978,25.6265547 C138.130677,25.6265547 136.877841,25.8493411 136.010373,26.2951393 C135.142904,26.7413885 134.709508,27.3612668 134.709508,28.1565781 C134.709508,28.7349658 134.956422,29.1990289 135.45025,29.5480909 C135.944078,29.8978294 136.564633,30.072135 137.31214,30.072135 C138.516268,30.072135 139.498513,29.764789 140.25752,29.1507735 C141.016978,28.5360816 141.39603,27.7353585 141.39603,26.7470259 Z M147.742398,33.3251542 L147.742398,8.70590733 C147.742398,7.21157001 148.953968,6 150.448305,6 L153.154212,6 L153.154212,33.3251542 L147.742398,33.3251542 Z M177.550335,15.7587872 L181.166103,15.7587872 L173.286501,35.999876 C172.443385,38.1925629 171.744134,39.5964778 171.19055,40.2107188 C170.635614,40.8251852 169.931176,41.2770718 169.075884,41.5663783 C168.220366,41.8554594 167.11816,42 165.768814,42 C164.370536,42 163.021191,41.7830764 161.720326,41.3492293 L162.443705,36.903649 C163.262242,37.2648877 164.106259,37.4457325 164.973954,37.4457325 C165.696431,37.4457325 166.26873,37.3492218 166.68995,37.1566514 C167.111395,36.9634045 167.45482,36.6865 167.720675,36.3252613 C167.985629,35.9635717 168.208415,35.5419012 168.388809,35.0602497 C168.569879,34.5779217 168.768538,34.0480148 168.985236,33.4696271 L161.28693,15.7587872 L165.292123,15.7587872 C166.407634,15.7587872 167.408819,16.4433817 167.813578,17.4829011 L171.660251,27.3612668 L171.732859,27.3612668 L174.98333,17.6091768 C175.351559,16.5040391 176.385667,15.7587872 177.550335,15.7587872 Z M185.224987,15.758697 C185.70506,15.758697 186.153564,15.8800118 186.570725,16.122416 C186.98766,16.3650457 187.318683,16.6947154 187.563567,17.1116506 C187.808452,17.5288113 187.930894,17.9797959 187.930894,18.4646043 C187.930894,18.9496382 187.808452,19.4019757 187.563567,19.8211658 C187.318683,20.240807 186.98766,20.5704767 186.570725,20.8106259 C186.153564,21.0507752 185.70506,21.1705116 185.224987,21.1705116 C184.744914,21.1705116 184.293929,21.0494223 183.872033,20.8070181 C183.450137,20.5643884 183.119114,20.2347187 182.879191,19.817558 C182.639041,19.4006227 182.518854,18.9496382 182.518854,18.4646043 C182.518854,17.9894921 182.640394,17.5423409 182.882799,17.1226997 C183.125203,16.7032841 183.456225,16.371134 183.875867,16.1260239 C184.295057,15.8813648 184.744914,15.758697 185.224987,15.758697 Z M183.260949,18.4646043 C183.260949,19.0224722 183.451265,19.5036727 183.831896,19.9086568 C184.212526,20.313641 184.677041,20.5159075 185.224987,20.5159075 C185.772933,20.5159075 186.237222,20.313641 186.617853,19.9086568 C186.998484,19.5036727 187.188799,19.0224722 187.188799,18.4646043 C187.188799,17.8925304 186.994876,17.4074965 186.607029,17.0099536 C186.218957,16.6124107 185.755796,16.4135265 185.217771,16.4135265 C184.679521,16.4135265 184.218615,16.6171461 183.835503,17.0243851 C183.452617,17.4318497 183.260949,17.9119227 183.260949,18.4646043 Z M185.224987,17.0171694 C186.005641,17.0171694 186.395968,17.3227114 186.395968,17.93357 C186.395968,18.3992115 186.175437,18.663714 185.734148,18.7264008 L186.461586,19.8540877 L185.697844,19.8540877 L185.050456,18.7629306 L184.926661,18.7629306 L184.926661,19.8540877 L184.184791,19.8540877 L184.184791,17.0171694 L185.224987,17.0171694 Z M184.919445,18.195592 L185.232428,18.195592 C185.363214,18.195592 185.466038,18.1750722 185.541352,18.1338071 C185.616667,18.092542 185.654099,18.0113648 185.654099,17.89005 C185.654099,17.6864304 185.513391,17.5847334 185.232428,17.5847334 L184.919445,17.5847334 L184.919445,18.195592 Z"
        id="Combined-Shape"></path>
      <path
        d="M28.8,38.4 C28.8,41.052 26.652,43.2 24,43.2 C21.348,43.2 19.2,41.052 19.2,38.4 L19.2,33.6 L28.8,33.6 L28.8,38.4 Z M38.523,14.403 C38.484,14.4 38.442,14.4 38.4,14.4 C37.074375,14.4 36,15.47475 36,16.8 C36,18.125625 37.074375,19.2 38.4,19.2 C41.049,19.2 43.2,21.348 43.2,24 C43.2,26.652 41.049,28.8 38.4,28.8 L33.6,28.8 L33.6,9.6 C33.6,4.299 29.301,0 24,0 C18.741,0 14.466,4.233 14.403,9.477 C14.4,9.516 14.4,9.558 14.4,9.6 C14.4,10.925625 15.474375,12 16.8,12 C18.125625,12 19.2,10.925625 19.2,9.6 C19.2,6.951 21.348,4.8 24,4.8 C26.652,4.8 28.8,6.951 28.8,9.6 L28.8,28.8 L19.2,28.8 L19.2,26.4 C19.2,25.077 18.126,24 16.8,24 C15.474,24 14.4,25.077 14.4,26.4 L14.4,28.8 L9.6,28.8 C6.948,28.8 4.8,26.652 4.8,24 C4.8,21.348 6.948,19.2 9.6,19.2 L17.913,19.2 L21.6,19.2 C22.923,19.2 24,18.126 24,16.8 C24,15.474 22.923,14.4 21.6,14.4 L9.6,14.4 C4.296,14.4 0,18.699 0,24 C0,29.301 4.296,33.6 9.6,33.6 L14.4,33.6 L14.4,38.4 C14.4,43.704 18.699,48 24,48 C29.301,48 33.6,43.704 33.6,38.4 L33.6,33.6 L38.4,33.6 C43.701,33.6 48,29.301 48,24 C48,18.741 43.767,14.466 38.523,14.403 Z"
        id="Fill-1"></path>
    </g>
  </g>
</svg>
