<?xml version="1.0" encoding="UTF-8"?>
<svg width="28px" height="30px" viewBox="0 0 28 30" version="1.1" xmlns="http://www.w3.org/2000/svg">
  <!-- Generator: Sketch 50 (54983) - http://www.bohemiancoding.com/sketch -->
  <title>Profile</title>
  <desc>Created with Sketch.</desc>
  <defs></defs>
  <g id="1.-Desktop-large" stroke="none" stroke-width="1" fill="none" fill-rule="evenodd">
    <path
      d="M24,26.6666667 L4,26.6666667 L4,25 C4,21.0666667 8.28333333,16.6666667 14,16.6666667 C19.7166667,16.6666667 24,21.0666667 24,25 L24,26.6666667 Z M14,3.33333333 C16.75,3.33333333 19,5.58333333 19,8.33333333 C19,11.0833333 16.75,13.3333333 14,13.3333333 C11.25,13.3333333 9,11.0833333 9,8.33333333 C9,5.58333333 11.25,3.33333333 14,3.33333333 Z M19.5666667,14.5 C21.25,12.9666667 22.3333333,10.7833333 22.3333333,8.33333333 C22.3333333,3.73333333 18.6,0 14,0 C9.4,0 5.66666667,3.73333333 5.66666667,8.33333333 C5.66666667,10.7833333 6.75,12.9666667 8.43333333,14.5 C3.93333333,16.4166667 0.666666667,20.5 0.666666667,25 L0.666666667,26.6666667 C0.666666667,28.5 2.16666667,30 4,30 L24,30 C25.8333333,30 27.3333333,28.5 27.3333333,26.6666667 L27.3333333,25 C27.3333333,20.5 24.0666667,16.4166667 19.5666667,14.5 Z"
      id="Profile" fill="#FF1744"></path>
  </g>
</svg>
