<?xml version="1.0" encoding="UTF-8"?>
<svg width="72px" height="72px" viewBox="0 0 72 72" version="1.1" xmlns="http://www.w3.org/2000/svg" xmlns:xlink="http://www.w3.org/1999/xlink">
    <!-- Generator: Sketch 50 (54983) - http://www.bohemiancoding.com/sketch -->
    <title>meet_share_inactive</title>
    <desc>Created with Sketch.</desc>
    <defs></defs>
    <g id="Assets" stroke="none" stroke-width="1" fill="none" fill-rule="evenodd">
        <g id="Artboard" transform="translate(-243.000000, -225.000000)">
            <g id="meet_share_inactive" transform="translate(243.000000, 225.000000)">
                <circle id="circle_border" stroke="#FF1744" stroke-width="2" cx="36" cy="36" r="35"></circle>
                <path d="M48.4806268,34.7616563 L24.4806268,25.428323 C24.0139602,25.240323 23.4806268,25.3349897 23.1072935,25.680323 C22.7339602,26.0269897 22.5739602,26.548323 22.7206268,27.0269897 L24.6192935,33.6989897 C24.7819602,34.272323 25.3059602,34.668323 25.9006268,34.668323 L27.6672935,34.668323 L36.0006268,34.668323 C36.7339602,34.668323 37.3339602,35.268323 37.3339602,36.0016563 C37.3339602,36.7336563 36.7339602,37.3349897 36.0006268,37.3349897 L27.6672935,37.3349897 L25.9006268,37.3349897 C25.3059602,37.3349897 24.7819602,37.7309897 24.6192935,38.3029897 L22.7206268,44.9749897 C22.5739602,45.4549897 22.7339602,45.9749897 23.1072935,46.3216563 C23.3472935,46.548323 23.6672935,46.668323 24.0006268,46.668323 C24.1606268,46.668323 24.3339602,46.6416563 24.4806268,46.5736563 L48.4806268,37.240323 C49.0006268,37.0416563 49.3339602,36.548323 49.3339602,36.0016563 C49.3339602,35.4549897 49.0006268,34.960323 48.4806268,34.7616563" id="Send" fill="#FF1744"></path>
            </g>
        </g>
    </g>
</svg>