<?xml version="1.0" encoding="UTF-8"?>
<svg width="219px" height="72px" viewBox="0 0 219 72" version="1.1" xmlns="http://www.w3.org/2000/svg">
  <!-- Generator: Sketch 49.3 (51167) - http://www.bohemiancoding.com/sketch -->
  <title>Group</title>
  <desc>Created with Sketch.</desc>
  <defs></defs>
  <g id="Page-1" stroke="none" stroke-width="1" fill="none" fill-rule="evenodd">
    <g id="Group">
      <path
        d="M188.184664,16.0002029 C188.195809,16.0000678 188.20697,16 188.218147,16 L190.933976,16 L190.933976,43.3251542 L185.51224,43.3251542 L185.51224,16.0002029 L188.184664,16.0002029 Z M105.409626,25.3250753 C107.771432,25.3250753 109.445937,25.9882481 110.43427,27.3130152 C111.421926,28.6389098 111.915754,30.6872817 111.915754,33.4576798 L111.915754,43.3252219 L106.50394,43.3252219 L106.504165,34.3973061 C106.504165,32.7588792 106.252967,31.6325453 105.771315,31.0178534 C105.288762,30.4036124 104.590412,30.0964919 103.674688,30.0964919 C102.590521,30.0964919 101.77717,30.4338284 101.235087,31.1085012 C100.693004,31.7831741 100.412491,32.8792921 100.412491,34.3973061 L100.411815,43.3252219 L95,43.3252219 L95,16.0000676 L97.7083877,16.0000676 C99.2018231,16.0000676 100.412942,17.2102847 100.414295,18.7037201 L100.421962,28.1446307 L100.49457,28.1446307 C100.83123,27.3012896 101.451785,26.6207539 102.355558,26.1023472 C103.259331,25.5843914 104.277203,25.3250753 105.409626,25.3250753 Z M124.763109,34.6503085 L124.763109,28.4646043 C124.763109,26.970267 125.974679,25.758697 127.469016,25.758697 L130.184394,25.758697 L130.184394,43.3252219 L124.77258,43.3252219 L124.77258,40.9397391 L124.699971,40.9397391 C124.217418,41.8313355 123.732609,42.5244988 122.828836,43.0178759 C121.92574,43.511704 120.89524,43.759069 119.738465,43.759069 C117.425139,43.759069 115.768448,43.1146121 114.76884,41.8252472 C113.768557,40.5365589 113.26864,38.4816477 113.26864,35.6625433 L113.26864,28.4646043 C113.26864,26.970267 114.48021,25.758697 115.974548,25.758697 L118.680455,25.758697 L118.680455,34.4712676 C118.680455,35.772358 118.781024,36.6869547 118.961418,37.2166361 C119.142038,37.7469939 119.437207,38.1743018 119.847152,38.4999126 C120.25642,38.825298 120.81068,38.9878779 121.509707,38.9878779 C122.666482,38.9878779 123.497646,38.6327276 124.003651,37.9215249 C124.50943,37.2109988 124.763109,36.1207436 124.763109,34.6503085 Z M152.934558,25.3250753 C157.078881,25.3250753 159.15138,27.8070688 159.15138,32.7710558 L159.15138,43.3252219 L153.739566,43.3252219 L153.739566,33.0240581 C153.739566,31.0724225 152.934558,30.0964919 151.344612,30.0964919 C149.151925,30.0964919 148.05017,31.3739057 148.05017,33.9278312 L148.05017,43.3252219 L142.638355,43.3252219 L142.633846,33.7106821 C142.633846,32.3615618 142.422334,31.4219355 142.001114,30.8915777 C141.578993,30.3616708 140.983242,30.0964919 140.211608,30.0964919 C139.127441,30.0964919 138.314316,30.4277401 137.772232,31.0904619 C137.229923,31.7531837 136.959107,32.8556154 136.959107,34.3973061 L136.94896,43.3252219 L131.537145,43.3252219 L131.537145,25.758697 L136.94896,25.758697 L136.94896,28.1446307 L137.021568,28.1446307 C137.50322,27.2532598 137.995018,26.560322 138.910743,26.0660429 C139.826692,25.5726658 140.838251,25.3250753 141.946771,25.3250753 C144.621786,25.3250753 146.42843,26.3733889 147.368507,28.4697906 C147.99515,27.3375939 148.753932,26.5303315 149.645754,26.0480035 C150.536674,25.5661266 151.633693,25.3250753 152.934558,25.3250753 Z M169.360002,25.3251655 C172.155204,25.3251655 174.603149,26.0000639 175.880562,27.3491842 C177.158202,28.6992065 177.796796,30.9640509 177.796796,34.144394 L177.796796,43.3250866 L172.384981,43.3250866 L172.384981,41.1218015 L172.312598,41.1218015 C171.17995,42.8810923 169.335875,43.7589337 166.757596,43.7589337 C164.925922,43.7589337 163.426398,43.2590173 162.257672,42.2591846 C161.08872,41.2593518 160.504469,39.9517221 160.504469,38.3371974 C160.504469,36.9398217 160.902238,35.7771836 161.697324,34.8492828 C162.492409,33.9220586 163.691352,33.2406209 165.293474,32.8069993 C166.895597,32.3736031 169.263491,32.1564541 172.39603,32.1564541 C172.39603,31.2168277 172.046517,30.4575952 171.348168,29.8792075 C170.648916,29.3010453 169.841654,29.0117388 168.92593,29.0117388 C167.239247,29.0117388 165.769263,29.7109903 164.516654,31.1085914 L161.624715,28.1447209 C162.637401,27.1568393 163.835667,26.4402248 165.221768,25.9939756 C166.984216,25.4264115 168.398954,25.3251655 169.360002,25.3251655 Z M172.39603,36.7470259 L172.39603,35.6265547 L170.76978,35.6265547 C169.130677,35.6265547 167.877841,35.8493411 167.010373,36.2951393 C166.142904,36.7413885 165.709508,37.3612668 165.709508,38.1565781 C165.709508,38.7349658 165.956422,39.1990289 166.45025,39.5480909 C166.944078,39.8978294 167.564633,40.072135 168.31214,40.072135 C169.516268,40.072135 170.498513,39.764789 171.25752,39.1507735 C172.016978,38.5360816 172.39603,37.7353585 172.39603,36.7470259 Z M178.742398,43.3251542 L178.742398,18.7059073 C178.742398,17.21157 179.953968,16 181.448305,16 L184.154212,16 L184.154212,43.3251542 L178.742398,43.3251542 Z M208.550335,25.7587872 L212.166103,25.7587872 L204.286501,45.999876 C203.443385,48.1925629 202.744134,49.5964778 202.19055,50.2107188 C201.635614,50.8251852 200.931176,51.2770718 200.075884,51.5663783 C199.220366,51.8554594 198.11816,52 196.768814,52 C195.370536,52 194.021191,51.7830764 192.720326,51.3492293 L193.443705,46.903649 C194.262242,47.2648877 195.106259,47.4457325 195.973954,47.4457325 C196.696431,47.4457325 197.26873,47.3492218 197.68995,47.1566514 C198.111395,46.9634045 198.45482,46.6865 198.720675,46.3252613 C198.985629,45.9635717 199.208415,45.5419012 199.388809,45.0602497 C199.569879,44.5779217 199.768538,44.0480148 199.985236,43.4696271 L192.28693,25.7587872 L196.292123,25.7587872 C197.407634,25.7587872 198.408819,26.4433817 198.813578,27.4829011 L202.660251,37.3612668 L202.732859,37.3612668 L205.98333,27.6091768 C206.351559,26.5040391 207.385667,25.7587872 208.550335,25.7587872 Z M216.224987,25.758697 C216.70506,25.758697 217.153564,25.8800118 217.570725,26.122416 C217.98766,26.3650457 218.318683,26.6947154 218.563567,27.1116506 C218.808452,27.5288113 218.930894,27.9797959 218.930894,28.4646043 C218.930894,28.9496382 218.808452,29.4019757 218.563567,29.8211658 C218.318683,30.240807 217.98766,30.5704767 217.570725,30.8106259 C217.153564,31.0507752 216.70506,31.1705116 216.224987,31.1705116 C215.744914,31.1705116 215.293929,31.0494223 214.872033,30.8070181 C214.450137,30.5643884 214.119114,30.2347187 213.879191,29.817558 C213.639041,29.4006227 213.518854,28.9496382 213.518854,28.4646043 C213.518854,27.9894921 213.640394,27.5423409 213.882799,27.1226997 C214.125203,26.7032841 214.456225,26.371134 214.875867,26.1260239 C215.295057,25.8813648 215.744914,25.758697 216.224987,25.758697 Z M214.260949,28.4646043 C214.260949,29.0224722 214.451265,29.5036727 214.831896,29.9086568 C215.212526,30.313641 215.677041,30.5159075 216.224987,30.5159075 C216.772933,30.5159075 217.237222,30.313641 217.617853,29.9086568 C217.998484,29.5036727 218.188799,29.0224722 218.188799,28.4646043 C218.188799,27.8925304 217.994876,27.4074965 217.607029,27.0099536 C217.218957,26.6124107 216.755796,26.4135265 216.217771,26.4135265 C215.679521,26.4135265 215.218615,26.6171461 214.835503,27.0243851 C214.452617,27.4318497 214.260949,27.9119227 214.260949,28.4646043 Z M216.224987,27.0171694 C217.005641,27.0171694 217.395968,27.3227114 217.395968,27.93357 C217.395968,28.3992115 217.175437,28.663714 216.734148,28.7264008 L217.461586,29.8540877 L216.697844,29.8540877 L216.050456,28.7629306 L215.926661,28.7629306 L215.926661,29.8540877 L215.184791,29.8540877 L215.184791,27.0171694 L216.224987,27.0171694 Z M215.919445,28.195592 L216.232428,28.195592 C216.363214,28.195592 216.466038,28.1750722 216.541352,28.1338071 C216.616667,28.092542 216.654099,28.0113648 216.654099,27.89005 C216.654099,27.6864304 216.513391,27.5847334 216.232428,27.5847334 L215.919445,27.5847334 L215.919445,28.195592 Z"
        id="Combined-Shape" fill="#FFFFFF"></path>
      <circle id="Oval-12" fill="#FFFFFF" cx="36" cy="36" r="36"></circle>
      <path
        d="M39.6,46.8 C39.6,48.789 37.989,50.4 36,50.4 C34.011,50.4 32.4,48.789 32.4,46.8 L32.4,43.2 L39.6,43.2 L39.6,46.8 Z M46.89225,28.80225 C46.863,28.8 46.8315,28.8 46.8,28.8 C45.8057813,28.8 45,29.6060625 45,30.6 C45,31.5942188 45.8057813,32.4 46.8,32.4 C48.78675,32.4 50.4,34.011 50.4,36 C50.4,37.989 48.78675,39.6 46.8,39.6 L43.2,39.6 L43.2,25.2 C43.2,21.22425 39.97575,18 36,18 C32.05575,18 28.8495,21.17475 28.80225,25.10775 C28.8,25.137 28.8,25.1685 28.8,25.2 C28.8,26.1942188 29.6057812,27 30.6,27 C31.5942188,27 32.4,26.1942188 32.4,25.2 C32.4,23.21325 34.011,21.6 36,21.6 C37.989,21.6 39.6,23.21325 39.6,25.2 L39.6,39.6 L32.4,39.6 L32.4,37.8 C32.4,36.80775 31.5945,36 30.6,36 C29.6055,36 28.8,36.80775 28.8,37.8 L28.8,39.6 L25.2,39.6 C23.211,39.6 21.6,37.989 21.6,36 C21.6,34.011 23.211,32.4 25.2,32.4 L31.43475,32.4 L34.2,32.4 C35.19225,32.4 36,31.5945 36,30.6 C36,29.6055 35.19225,28.8 34.2,28.8 L25.2,28.8 C21.222,28.8 18,32.02425 18,36 C18,39.97575 21.222,43.2 25.2,43.2 L28.8,43.2 L28.8,46.8 C28.8,50.778 32.02425,54 36,54 C39.97575,54 43.2,50.778 43.2,46.8 L43.2,43.2 L46.8,43.2 C50.77575,43.2 54,39.97575 54,36 C54,32.05575 50.82525,28.8495 46.89225,28.80225 Z"
        id="Fill-1" fill="#FF1744"></path>
    </g>
  </g>
</svg>
