<?xml version="1.0" encoding="UTF-8"?>
<svg width="34px" height="34px" viewBox="0 0 34 34" version="1.1" xmlns="http://www.w3.org/2000/svg" xmlns:xlink="http://www.w3.org/1999/xlink">
    <!-- Generator: Sketch 50 (54983) - http://www.bohemiancoding.com/sketch -->
    <title>ico_nearby_red</title>
    <desc>Created with Sketch.</desc>
    <defs></defs>
    <g id="Assets" stroke="none" stroke-width="1" fill="none" fill-rule="evenodd">
        <g id="Artboard" transform="translate(-368.000000, -357.000000)" fill="#FF1744">
            <path d="M396.025,374.383333 C399.441667,376.08 401.333333,378.491667 401.333333,381.166667 C401.333333,383.84 399.441667,386.253333 396.008333,387.958333 C392.988333,389.488333 388.956667,390.333333 384.666667,390.333333 C380.376667,390.333333 376.345,389.488333 373.311667,387.953333 C369.891667,386.253333 368,383.84 368,381.166667 C368,378.491667 369.891667,376.08 373.323333,374.375 C374.383333,373.833333 375.581667,373.39 376.878333,373.028333 C375.611667,370.92 374.666667,368.763333 374.666667,367 C374.666667,361.485 379.151667,357 384.666667,357 C390.18,357 394.666667,361.485 394.666667,367 C394.666667,368.763333 393.72,370.92 392.455,373.028333 C393.753333,373.39 394.956667,373.835 396.025,374.383333 Z M394.513333,384.978333 C396.733333,383.876667 398,382.49 398,381.166667 C398,379.843333 396.733333,378.456667 394.525,377.36 C393.358333,376.761667 392.001667,376.301667 390.488333,375.966667 C388.438333,378.756667 386.313333,381.021667 385.871667,381.483333 L384.666667,382.746667 L383.46,381.483333 C383.02,381.021667 380.893333,378.756667 378.845,375.966667 C377.33,376.301667 375.976667,376.761667 374.825,377.351667 C372.6,378.456667 371.333333,379.843333 371.333333,381.166667 C371.333333,382.49 372.6,383.876667 374.808333,384.973333 C377.393333,386.281667 380.89,387 384.666667,387 C388.441667,387 391.94,386.281667 394.513333,384.978333 Z M384.666667,360.333333 C380.99,360.333333 378,363.323333 378,367 C378,369.51 381.701667,374.52 384.666667,377.866667 C387.63,374.518333 391.333333,369.506667 391.333333,367 C391.333333,363.323333 388.343333,360.333333 384.666667,360.333333 Z M387.999667,366.999833 C387.999667,368.839833 386.506333,370.333167 384.666333,370.333167 C382.826333,370.333167 381.333,368.839833 381.333,366.999833 C381.333,365.159833 382.826333,363.6665 384.666333,363.6665 C386.506333,363.6665 387.999667,365.159833 387.999667,366.999833 Z" id="ico_nearby_red"></path>
        </g>
    </g>
</svg>