<?xml version="1.0" encoding="UTF-8"?>
<svg width="30px" height="34px" viewBox="0 0 30 34" version="1.1" xmlns="http://www.w3.org/2000/svg" xmlns:xlink="http://www.w3.org/1999/xlink">
    <!-- Generator: Sketch 50 (54983) - http://www.bohemiancoding.com/sketch -->
    <title>ico_notification_red</title>
    <desc>Created with Sketch.</desc>
    <defs></defs>
    <g id="Assets" stroke="none" stroke-width="1" fill="none" fill-rule="evenodd">
        <g id="Artboard" transform="translate(-206.000000, -357.000000)" fill="#FF1744">
            <path d="M209.338185,382 L212.004852,378.45 C212.438185,377.866667 212.671519,377.166667 212.671519,376.45 L212.671519,367.8 C212.671519,367.483333 212.771519,360.333333 221.004852,360.333333 C229.038185,360.333333 229.338185,367.8 229.338185,368.666667 L229.338185,376.45 C229.338185,377.166667 229.571519,377.866667 230.004852,378.45 L232.671519,382 L209.338185,382 Z M221.004852,387 C220.088185,387 219.338185,386.25 219.338185,385.333333 L222.671519,385.333333 C222.671519,386.25 221.921519,387 221.004852,387 Z M235.338185,380 L232.671519,376.45 L232.671519,368.666667 C232.671519,364.633333 230.238185,357 221.004852,357 C211.771519,357 209.338185,364.066667 209.338185,367.8 L209.338185,376.45 L206.671519,380 C205.904852,381.016667 205.788185,382.35 206.354852,383.483333 C206.921519,384.633333 208.071519,385.333333 209.338185,385.333333 L216.004852,385.333333 C216.004852,388.083333 218.254852,390.333333 221.004852,390.333333 C223.754852,390.333333 226.004852,388.083333 226.004852,385.333333 L232.671519,385.333333 C233.938185,385.333333 235.088185,384.633333 235.654852,383.483333 C236.221519,382.35 236.104852,381.016667 235.338185,380 Z" id="ico_notification_red"></path>
        </g>
    </g>
</svg>