<?xml version="1.0" encoding="UTF-8"?>
<svg width="27px" height="30px" viewBox="0 0 27 30" version="1.1" xmlns="http://www.w3.org/2000/svg" xmlns:xlink="http://www.w3.org/1999/xlink">
    <!-- Generator: Sketch 50 (54983) - http://www.bohemiancoding.com/sketch -->
    <title>ico_profile_red</title>
    <desc>Created with Sketch.</desc>
    <defs></defs>
    <g id="Assets" stroke="none" stroke-width="1" fill="none" fill-rule="evenodd">
        <g id="Artboard" transform="translate(-131.000000, -357.000000)" fill="#FF1744">
            <path d="M154.333333,383.666667 L134.333333,383.666667 L134.333333,382 C134.333333,378.066667 138.616667,373.666667 144.333333,373.666667 C150.05,373.666667 154.333333,378.066667 154.333333,382 L154.333333,383.666667 Z M144.333333,360.333333 C147.083333,360.333333 149.333333,362.583333 149.333333,365.333333 C149.333333,368.083333 147.083333,370.333333 144.333333,370.333333 C141.583333,370.333333 139.333333,368.083333 139.333333,365.333333 C139.333333,362.583333 141.583333,360.333333 144.333333,360.333333 Z M149.9,371.5 C151.583333,369.966667 152.666667,367.783333 152.666667,365.333333 C152.666667,360.733333 148.933333,357 144.333333,357 C139.733333,357 136,360.733333 136,365.333333 C136,367.783333 137.083333,369.966667 138.766667,371.5 C134.266667,373.416667 131,377.5 131,382 L131,383.666667 C131,385.5 132.5,387 134.333333,387 L154.333333,387 C156.166667,387 157.666667,385.5 157.666667,383.666667 L157.666667,382 C157.666667,377.5 154.4,373.416667 149.9,371.5 Z" id="ico_profile_red"></path>
        </g>
    </g>
</svg>