<?xml version="1.0" encoding="UTF-8"?>
<svg width="72px" height="72px" viewBox="0 0 72 72" version="1.1" xmlns="http://www.w3.org/2000/svg" xmlns:xlink="http://www.w3.org/1999/xlink">
    <!-- Generator: Sketch 50 (54983) - http://www.bohemiancoding.com/sketch -->
    <title>meet_activity_inactive</title>
    <desc>Created with Sketch.</desc>
    <defs></defs>
    <g id="Assets" stroke="none" stroke-width="1" fill="none" fill-rule="evenodd">
        <g id="Artboard" transform="translate(-35.000000, -225.000000)">
            <g id="meet_activity_inactive" transform="translate(35.000000, 225.000000)">
                <circle id="circle_border" stroke="#FF1744" stroke-width="2" cx="36" cy="36" r="35"></circle>
                <path d="M32.8634667,37.3034667 L36.2234667,31.7021333 L33.6181333,29.8421333 L30.4008,34.1341333 C29.9581333,34.7221333 29.1221333,34.8421333 28.5328,34.3994667 C27.9448,33.9581333 27.8248,33.1221333 28.2674667,32.5328 L32.2674667,27.1994667 C32.7008,26.6208 33.5194667,26.4941333 34.1088,26.9141333 L38.7754667,30.2474667 L42.6928,33.0474667 L45.9274667,30.8901333 C46.5394667,30.4821333 47.3674667,30.6474667 47.7768,31.2608 C48.1848,31.8728 48.0194667,32.7008 47.4061333,33.1088 L43.4061333,35.7754667 C42.9461333,36.0834667 42.3421333,36.0741333 41.8914667,35.7514667 L38.4008,33.2581333 L35.7768,37.6301333 L39.4421333,40.2474667 C40.0154667,40.6581333 40.1701333,41.4421333 39.7981333,42.0394667 L36.4648,47.3728 C36.0741333,47.9981333 35.2514667,48.1874667 34.6274667,47.7981333 C34.0021333,47.4074667 33.8128,46.5848 34.2021333,45.9594667 L36.8714667,41.6901333 L34.4008,39.9248 L33.1434667,42.0194667 C32.9941333,42.2688 32.7661333,42.4634667 32.4954667,42.5714667 L25.8288,45.2381333 C25.1448,45.5114667 24.3688,45.1794667 24.0954667,44.4954667 C23.8221333,43.8114667 24.1541333,43.0354667 24.8381333,42.7621333 L31.0874667,40.2621333 L32.8488,37.3274667 C32.8541333,37.3194667 32.8581333,37.3114667 32.8634667,37.3034667 M40.0008,29.3328 C38.5274667,29.3328 37.3341333,28.1394667 37.3341333,26.6661333 C37.3341333,25.1941333 38.5274667,23.9994667 40.0008,23.9994667 C41.4728,23.9994667 42.6674667,25.1941333 42.6674667,26.6661333 C42.6674667,28.1394667 41.4728,29.3328 40.0008,29.3328" id="Sports" fill="#FF1744"></path>
            </g>
        </g>
    </g>
</svg>