<?xml version="1.0" encoding="UTF-8"?>
<svg width="37px" height="36px" viewBox="0 0 37 36" version="1.1" xmlns="http://www.w3.org/2000/svg" xmlns:xlink="http://www.w3.org/1999/xlink">
    <!-- Generator: Sketch 50 (54983) - http://www.bohemiancoding.com/sketch -->
    <title>ico_settings_red</title>
    <desc>Created with Sketch.</desc>
    <defs></defs>
    <g id="Assets" stroke="none" stroke-width="1" fill="none" fill-rule="evenodd">
        <g id="Artboard" transform="translate(-284.000000, -357.000000)" fill="#FF1744" fill-rule="nonzero">
            <path d="M316.878219,372.270326 C316.878245,372.270477 316.005417,372.141016 314.259738,371.881944 C313.68023,371.79594 313.188432,371.411986 312.964405,370.870656 C312.583144,369.949393 312.069469,369.071105 311.434941,368.246069 C311.077514,367.781328 310.990562,367.162965 311.205962,366.617676 L312.18372,364.142467 C312.183633,364.142423 311.946516,363.943001 311.472371,363.544201 C311.472118,363.543989 310.71859,364.006515 309.211789,364.93178 C308.712454,365.238525 308.088708,365.260483 307.569038,364.989609 C306.66707,364.519465 305.709116,364.169655 304.711263,363.949032 C304.139009,363.822507 303.675265,363.404712 303.489932,362.848713 L302.651212,360.332553 C302.651408,360.333141 302.341361,360.333401 301.721071,360.333333 L300.88221,362.848713 C300.696876,363.404712 300.233133,363.822507 299.660878,363.949032 C298.663026,364.169655 297.705072,364.519465 296.803103,364.989609 C296.283434,365.260483 295.659688,365.238525 295.160352,364.93178 L292.900537,363.54356 L292.18844,364.142512 L293.166179,366.617676 C293.38158,367.162965 293.294628,367.781328 292.9372,368.246069 C292.302672,369.071105 291.788998,369.949393 291.407737,370.870656 C291.183709,371.411986 290.691912,371.79594 290.112404,371.881944 L287.494898,372.270401 C287.494299,372.27049 287.440681,372.575792 287.334043,373.186309 C287.333912,373.187056 288.114588,373.610261 289.676072,374.455925 C290.191354,374.734822 290.52234,375.263808 290.547827,375.84917 C290.593802,376.905129 290.765374,377.91183 291.059334,378.846765 C291.234829,379.404926 291.104786,380.014234 290.716708,380.452112 L288.963114,382.430738 C288.963161,382.430743 289.118048,382.699384 289.427776,383.23666 C289.427756,383.236664 290.297227,383.058552 292.036189,382.702324 C292.610295,382.584568 293.20406,382.776998 293.599959,383.209118 C294.289734,383.961999 295.069437,384.618842 295.922285,385.164201 C296.414743,385.479106 296.706237,386.028984 296.690464,386.613305 L296.618758,389.269719 C296.618744,389.270225 296.910732,389.376284 297.494722,389.587894 L299.145048,387.506252 C299.508026,387.048409 300.084247,386.81407 300.663743,386.888625 C301.242112,386.963035 301.725452,387 302.186071,387 C302.646689,387 303.13003,386.963035 303.708399,386.888625 C304.287894,386.81407 304.864115,387.048409 305.227093,387.506252 L306.875231,389.585149 C306.876149,389.587272 307.168106,389.482791 307.751102,389.271706 C307.752411,389.271226 307.72927,388.385093 307.681678,386.613305 C307.665905,386.028984 307.957398,385.479106 308.449857,385.164201 C309.302704,384.618842 310.082408,383.961999 310.772182,383.209118 C311.168081,382.776998 311.761846,382.584568 312.335952,382.702324 L314.926866,383.233847 C314.934442,383.235317 315.095155,382.967574 315.409007,382.430617 C315.408965,382.430617 314.82444,381.771116 313.655433,380.452112 C313.267356,380.014234 313.137312,379.404926 313.312808,378.846765 C313.606767,377.91183 313.778339,376.905129 313.824315,375.84917 C313.849801,375.263808 314.180788,374.734822 314.696069,374.455925 L317.038752,373.187944 L316.878219,372.270326 Z M318.626072,376.119075 L317.084163,376.953636 C317.014725,377.623596 316.903271,378.279637 316.749766,378.917906 L317.90218,380.218207 C318.855519,381.291547 319.013611,382.855228 318.296678,384.095687 L317.831686,384.90234 C317.23433,385.938638 316.130827,386.57 314.944404,386.57 C314.725578,386.57 314.508058,386.548086 314.274523,386.502676 L312.556882,386.150368 C312.078677,386.610077 311.57151,387.037127 311.038237,387.428783 L311.085425,389.176948 C311.125358,390.611201 310.243958,391.908446 308.891578,392.403859 L308.022341,392.718428 C307.654178,392.853202 307.267056,392.921667 306.879404,392.921667 C305.869421,392.921667 304.90694,392.462362 304.266715,391.660415 L303.183393,390.293964 C302.84193,390.320033 302.51386,390.333333 302.186071,390.333333 C301.85828,390.333333 301.530209,390.320033 301.188744,390.293964 L300.101897,391.664851 C299.465201,392.462362 298.50272,392.921667 297.492737,392.921667 C297.105085,392.921667 296.717964,392.853202 296.355563,392.720525 L295.474435,392.401627 C294.128184,391.908446 293.246784,390.611201 293.286678,389.178361 L293.333904,387.428783 C292.800621,387.03712 292.293445,386.61006 291.815231,386.150341 L290.0802,386.506153 C289.864083,386.548086 289.646563,386.57 289.427737,386.57 C288.241315,386.57 287.137812,385.938638 286.540463,384.902354 L286.076408,384.097323 C285.35853,382.855228 285.516623,381.291547 286.468767,380.219554 L287.622376,378.917906 C287.46887,378.279637 287.357417,377.623596 287.287979,376.953636 L285.746471,376.119292 C284.483054,375.435914 283.801783,374.021701 284.050893,372.61009 L284.211548,371.689695 C284.461508,370.276589 285.587779,369.182853 287.006404,368.973056 L288.726685,368.717753 C289.020431,368.125031 289.356109,367.550197 289.731258,366.995015 L289.087618,365.36563 C288.560465,364.031065 288.945749,362.509094 290.043245,361.591197 L290.759038,360.989133 C291.363983,360.482286 292.121687,360.21 292.901071,360.21 C293.513036,360.21 294.117876,360.379012 294.645123,360.70322 L296.130875,361.615928 C296.739698,361.34682 297.366162,361.118523 298.007251,360.932663 L298.557879,359.280781 C299.01096,357.918205 300.286298,357 301.721071,357 L302.651071,357 C304.085843,357 305.361181,357.918205 305.813876,359.27962 L306.36489,360.932663 C307.005979,361.118523 307.632444,361.34682 308.241267,361.615928 L309.7264,360.7036 C310.254266,360.379012 310.859106,360.21 311.471071,360.21 C312.250454,360.21 313.008159,360.482286 313.615563,360.991197 L314.325329,361.588205 C315.426392,362.509094 315.811677,364.031065 315.284513,365.365658 L314.640884,366.995015 C315.016032,367.550197 315.35171,368.125031 315.645456,368.717754 L317.364898,368.972932 C318.784362,369.182853 319.910633,370.276589 320.161248,371.693424 L320.321026,372.608815 C320.569784,374.022895 319.888554,375.436202 318.626072,376.119075 Z M293.852737,375.333333 C293.852737,370.736192 297.588929,367 302.186071,367 C306.783212,367 310.519404,370.736192 310.519404,375.333333 C310.519404,379.929319 306.782701,383.666667 302.186071,383.666667 C297.58944,383.666667 293.852737,379.929319 293.852737,375.333333 Z M297.186071,375.333333 C297.186071,378.088498 299.430518,380.333333 302.186071,380.333333 C304.941623,380.333333 307.186071,378.088498 307.186071,375.333333 C307.186071,372.577141 304.942263,370.333333 302.186071,370.333333 C299.429879,370.333333 297.186071,372.577141 297.186071,375.333333 Z" id="ico_settings_red"></path>
        </g>
    </g>
</svg>